<svg width="140" height="35" viewBox="0 0 140 35" fill="none" xmlns="http://www.w3.org/2000/svg">
<g clip-path="url(#clip0_92_99)">
<path fill-rule="evenodd" clip-rule="evenodd" d="M35.5349 19.9915V15.367L19.3022 4.26382L3.06952 15.367V19.9915H2.75382C1.82766 19.9915 0.984465 20.3525 0.363037 20.9382V13.3798L19.302 0.425478L27.9214 6.32105V-0.000244141H34.2618V10.6579L38.241 13.3798V20.8638C37.6284 20.322 36.8179 19.9913 35.9316 19.9913H35.5345L35.5349 19.9915ZM0.363237 26.2999V30.8946L2.10826 27.6294L2.63177 26.7121C2.63177 26.7121 2.77516 26.4501 3.18658 26.2999H35.4994C35.9107 26.4501 36.0542 26.7121 36.0542 26.7121L36.5778 27.6294L38.3228 30.8946V26.2999V23.3783C38.3228 22.0888 37.2468 21.034 35.932 21.034H2.75422C1.43917 21.034 0.363436 22.089 0.363436 23.3783V26.2999H0.363237ZM35.9954 22.4457C36.4874 22.4457 36.8861 22.8368 36.8861 23.319C36.8861 23.8015 36.4872 24.1924 35.9954 24.1924C35.5034 24.1924 35.1048 23.8013 35.1048 23.319C35.1048 22.8366 35.5036 22.4457 35.9954 22.4457Z" fill="white"/>
<path fill-rule="evenodd" clip-rule="evenodd" d="M13.5928 9.38477L4.0867 15.887V20.0349H13.5928V9.38477ZM-4.47094e-05 33.7264H12.0913L13.4658 27.2987H3.46447L3.00419 28.1052L-0.000244141 33.7266L-4.47094e-05 33.7264Z" fill="#FFFF00"/>
<path fill-rule="evenodd" clip-rule="evenodd" d="M24.3528 8.93384L19.3024 5.47937L14.4331 8.81005V20.0349H24.3528V8.93384ZM12.9478 33.7264H25.7385L24.364 27.2987H14.3222L12.9478 33.7264Z" fill="#FF00FE"/>
<path fill-rule="evenodd" clip-rule="evenodd" d="M34.5183 20.0348V15.8869L25.1931 9.50854V20.0348H34.5183ZM26.5949 33.7264H38.6862L35.6818 28.105L35.2215 27.2985H25.2202L26.5947 33.7262L26.5949 33.7264Z" fill="#00CCFF"/>
</g>
<path d="M58.0493 15.9833C57.3826 16.6233 56.6626 17.0633 55.8893 17.3033C55.1159 17.5433 54.3559 17.6033 53.6093 17.4833C52.8626 17.3633 52.1826 17.0833 51.5693 16.6433C50.9559 16.2033 50.4626 15.6233 50.0893 14.9033C49.7293 14.1833 49.5493 13.3366 49.5493 12.3633C49.5493 11.3633 49.7293 10.5033 50.0893 9.78328C50.4493 9.04995 50.9359 8.47661 51.5493 8.06328C52.1626 7.63661 52.8426 7.37661 53.5893 7.28328C54.3359 7.18995 55.1026 7.27661 55.8893 7.54328C56.6759 7.79661 57.4159 8.24328 58.1093 8.88328L56.5093 10.5833C56.1093 10.1033 55.6493 9.80328 55.1293 9.68328C54.6226 9.56328 54.1226 9.59661 53.6293 9.78328C53.1493 9.96995 52.7493 10.2899 52.4293 10.7433C52.1226 11.1833 51.9693 11.7233 51.9693 12.3633C51.9693 13.0566 52.1226 13.6299 52.4293 14.0833C52.7493 14.5366 53.1493 14.8566 53.6293 15.0433C54.1093 15.2166 54.6159 15.2433 55.1493 15.1233C55.6826 14.9899 56.1693 14.6899 56.6093 14.2233L58.0493 15.9833ZM62.3949 17.4633C61.3816 17.4099 60.6149 17.1233 60.0949 16.6033C59.5749 16.0699 59.3149 15.3366 59.3149 14.4033C59.3149 13.7233 59.4882 13.1433 59.8349 12.6633C60.1816 12.1699 60.6416 11.7833 61.2149 11.5033C61.7882 11.2233 62.4216 11.0499 63.1149 10.9833C63.8216 10.9166 64.5349 10.9633 65.2549 11.1233V10.5033C65.2549 10.0766 65.0816 9.76995 64.7349 9.58328C64.3882 9.39661 63.9616 9.30995 63.4549 9.32328C62.9616 9.33661 62.4616 9.43661 61.9549 9.62328C61.4616 9.79661 61.0616 10.0499 60.7549 10.3833L59.4149 8.92328C59.9216 8.42995 60.5216 8.04328 61.2149 7.76328C61.9082 7.48328 62.6216 7.32328 63.3549 7.28328C64.1016 7.24328 64.8016 7.32995 65.4549 7.54328C66.1216 7.75661 66.6682 8.10328 67.0949 8.58328C67.4282 8.95661 67.6149 9.44995 67.6549 10.0633C67.6949 10.6766 67.7149 11.3499 67.7149 12.0833V17.3633H65.2749V16.4433C64.8616 16.8299 64.4016 17.1033 63.8949 17.2633C63.3882 17.4099 62.8882 17.4766 62.3949 17.4633ZM65.1949 14.5433V12.8233C63.8082 12.7166 62.8416 12.8033 62.2949 13.0833C61.7616 13.3633 61.4949 13.7966 61.4949 14.3833C61.4949 14.7566 61.6216 15.0299 61.8749 15.2033C62.1416 15.3633 62.4682 15.4433 62.8549 15.4433C63.2549 15.4299 63.6616 15.3499 64.0749 15.2033C64.5016 15.0433 64.8749 14.8233 65.1949 14.5433ZM69.5102 16.0033L70.9102 14.5033C71.6169 15.1166 72.3435 15.4233 73.0902 15.4233C73.3035 15.4233 73.4969 15.4033 73.6702 15.3633C73.8569 15.3099 74.0102 15.2299 74.1302 15.1233C74.2902 14.9766 74.3835 14.8033 74.4102 14.6033C74.4369 14.3899 74.4369 14.2166 74.4102 14.0833C74.3569 13.8433 74.1902 13.6566 73.9102 13.5233C73.6435 13.3766 73.3102 13.2499 72.9102 13.1433C72.5235 13.0233 72.1235 12.8766 71.7102 12.7033C71.2969 12.5299 70.9302 12.2966 70.6102 12.0033C70.0902 11.5099 69.7902 10.9899 69.7102 10.4433C69.6435 9.88328 69.7502 9.36328 70.0302 8.88328C70.3235 8.40328 70.7502 8.01661 71.3102 7.72328C71.8702 7.41661 72.5235 7.26328 73.2702 7.26328C73.9769 7.26328 74.6102 7.38995 75.1702 7.64328C75.7302 7.88328 76.1769 8.19661 76.5102 8.58328L74.9902 9.94328C74.7769 9.74328 74.5102 9.59661 74.1902 9.50328C73.8835 9.39661 73.5835 9.34328 73.2902 9.34328C72.9835 9.34328 72.7169 9.40995 72.4902 9.54328C72.2635 9.66328 72.1502 9.87661 72.1502 10.1833C72.1502 10.4233 72.2435 10.6166 72.4302 10.7633C72.6169 10.9099 72.8569 11.0366 73.1502 11.1433C73.4569 11.2499 73.7835 11.3633 74.1302 11.4833C74.4902 11.5899 74.8302 11.7299 75.1502 11.9033C75.5635 12.1166 75.9102 12.4233 76.1902 12.8233C76.4702 13.2099 76.6102 13.7166 76.6102 14.3433C76.6102 15.0233 76.4435 15.5966 76.1102 16.0633C75.7902 16.5299 75.3635 16.8899 74.8302 17.1433C74.2969 17.3833 73.7102 17.5033 73.0702 17.5033C72.4435 17.5033 71.8169 17.3833 71.1902 17.1433C70.5769 16.8899 70.0169 16.5099 69.5102 16.0033ZM81.0863 17.4633C80.073 17.4099 79.3063 17.1233 78.7863 16.6033C78.2663 16.0699 78.0063 15.3366 78.0063 14.4033C78.0063 13.7233 78.1796 13.1433 78.5263 12.6633C78.873 12.1699 79.333 11.7833 79.9063 11.5033C80.4796 11.2233 81.113 11.0499 81.8063 10.9833C82.513 10.9166 83.2263 10.9633 83.9463 11.1233V10.5033C83.9463 10.0766 83.773 9.76995 83.4263 9.58328C83.0796 9.39661 82.653 9.30995 82.1463 9.32328C81.653 9.33661 81.153 9.43661 80.6463 9.62328C80.153 9.79661 79.753 10.0499 79.4463 10.3833L78.1063 8.92328C78.613 8.42995 79.213 8.04328 79.9063 7.76328C80.5996 7.48328 81.313 7.32328 82.0463 7.28328C82.793 7.24328 83.493 7.32995 84.1463 7.54328C84.813 7.75661 85.3596 8.10328 85.7863 8.58328C86.1196 8.95661 86.3063 9.44995 86.3463 10.0633C86.3863 10.6766 86.4063 11.3499 86.4063 12.0833V17.3633H83.9663V16.4433C83.553 16.8299 83.093 17.1033 82.5863 17.2633C82.0796 17.4099 81.5796 17.4766 81.0863 17.4633ZM83.8863 14.5433V12.8233C82.4996 12.7166 81.533 12.8033 80.9863 13.0833C80.453 13.3633 80.1863 13.7966 80.1863 14.3833C80.1863 14.7566 80.313 15.0299 80.5663 15.2033C80.833 15.3633 81.1596 15.4433 81.5463 15.4433C81.9463 15.4299 82.353 15.3499 82.7663 15.2033C83.193 15.0433 83.5663 14.8233 83.8863 14.5433ZM98.3393 17.1833C97.7526 16.9166 97.2726 16.5299 96.8993 16.0233C96.5259 15.5033 96.2459 14.9099 96.0593 14.2433C95.8859 13.5766 95.7993 12.8899 95.7993 12.1833C95.7993 11.2633 95.9659 10.4299 96.2993 9.68328C96.6326 8.93661 97.1193 8.34328 97.7593 7.90328C98.4126 7.44995 99.2126 7.22328 100.159 7.22328C100.466 7.22328 100.819 7.25661 101.219 7.32328C101.633 7.38995 101.966 7.51661 102.219 7.70328V3.36328H104.619V17.3633H102.219V16.5633C101.993 16.8299 101.646 17.0433 101.179 17.2033C100.713 17.3499 100.219 17.4233 99.6993 17.4233C99.1926 17.4366 98.7393 17.3566 98.3393 17.1833ZM102.219 14.5633V9.96328C101.526 9.68328 100.873 9.58995 100.259 9.68328C99.6593 9.77661 99.1659 10.0366 98.7793 10.4633C98.4059 10.8766 98.2193 11.4499 98.2193 12.1833C98.2193 13.0499 98.4059 13.7366 98.7793 14.2433C99.1526 14.7366 99.6393 15.0233 100.239 15.1033C100.853 15.1699 101.513 14.9899 102.219 14.5633ZM109.504 17.4633C108.491 17.4099 107.724 17.1233 107.204 16.6033C106.684 16.0699 106.424 15.3366 106.424 14.4033C106.424 13.7233 106.598 13.1433 106.944 12.6633C107.291 12.1699 107.751 11.7833 108.324 11.5033C108.898 11.2233 109.531 11.0499 110.224 10.9833C110.931 10.9166 111.644 10.9633 112.364 11.1233V10.5033C112.364 10.0766 112.191 9.76995 111.844 9.58328C111.498 9.39661 111.071 9.30995 110.564 9.32328C110.071 9.33661 109.571 9.43661 109.064 9.62328C108.571 9.79661 108.171 10.0499 107.864 10.3833L106.524 8.92328C107.031 8.42995 107.631 8.04328 108.324 7.76328C109.018 7.48328 109.731 7.32328 110.464 7.28328C111.211 7.24328 111.911 7.32995 112.564 7.54328C113.231 7.75661 113.778 8.10328 114.204 8.58328C114.538 8.95661 114.724 9.44995 114.764 10.0633C114.804 10.6766 114.824 11.3499 114.824 12.0833V17.3633H112.384V16.4433C111.971 16.8299 111.511 17.1033 111.004 17.2633C110.498 17.4099 109.998 17.4766 109.504 17.4633ZM112.304 14.5433V12.8233C110.918 12.7166 109.951 12.8033 109.404 13.0833C108.871 13.3633 108.604 13.7966 108.604 14.3833C108.604 14.7566 108.731 15.0299 108.984 15.2033C109.251 15.3633 109.578 15.4433 109.964 15.4433C110.364 15.4299 110.771 15.3499 111.184 15.2033C111.611 15.0433 111.984 14.8233 112.304 14.5433ZM51.2093 19.1833C50.7959 19.1833 50.4493 19.0433 50.1693 18.7633C49.8893 18.4833 49.7493 18.1366 49.7493 17.7233C49.7493 17.3233 49.8893 16.9833 50.1693 16.7033C50.4493 16.4233 50.7959 16.2833 51.2093 16.2833C51.6093 16.2833 51.9493 16.4233 52.2293 16.7033C52.5093 16.9833 52.6493 17.3233 52.6493 17.7233C52.6493 18.1366 52.5093 18.4833 52.2293 18.7633C51.9493 19.0433 51.6093 19.1833 51.2093 19.1833ZM52.3093 30.3633H50.1093V20.3633H52.3093V30.3633ZM69.9716 30.3633H67.5716V24.6033C67.5716 23.8966 67.3983 23.4033 67.0516 23.1233C66.7183 22.8299 66.2649 22.6833 65.6916 22.6833C65.1049 22.6833 64.5916 22.8299 64.1516 23.1233C63.7249 23.4033 63.5116 23.8966 63.5116 24.6033V30.3633H61.1916V24.6033C61.1916 23.8966 60.9983 23.4033 60.6116 23.1233C60.2383 22.8433 59.7916 22.7033 59.2716 22.7033C58.8983 22.7033 58.5383 22.7633 58.1916 22.8833C57.8583 23.0033 57.5849 23.2033 57.3716 23.4833C57.1583 23.7499 57.0516 24.1233 57.0516 24.6033V30.3633H54.6516V20.3633H57.0516V21.1233C57.3716 20.8033 57.7383 20.5833 58.1516 20.4633C58.5783 20.3299 58.9983 20.2633 59.4116 20.2633C60.0249 20.2633 60.6049 20.3766 61.1516 20.6033C61.7116 20.8166 62.1583 21.1433 62.4916 21.5833C62.8383 21.1433 63.3316 20.8166 63.9716 20.6033C64.6116 20.3766 65.2316 20.2633 65.8316 20.2633C66.5783 20.2633 67.2649 20.4499 67.8916 20.8233C68.5183 21.1833 69.0183 21.6899 69.3916 22.3433C69.7783 22.9833 69.9716 23.7366 69.9716 24.6033V30.3633ZM74.1805 34.3633H71.7805V20.3633H74.1805V20.9033C74.9405 20.4499 75.7205 20.2499 76.5205 20.3033C77.3205 20.3433 78.0605 20.5899 78.7405 21.0433C79.4205 21.4966 79.9672 22.1099 80.3805 22.8833C80.7939 23.6566 81.0005 24.5433 81.0005 25.5433C81.0005 26.4499 80.7939 27.2766 80.3805 28.0233C79.9805 28.7699 79.4339 29.3699 78.7405 29.8233C78.0605 30.2633 77.2939 30.4899 76.4405 30.5033C76.2405 30.5033 75.9939 30.4899 75.7005 30.4633C75.4072 30.4366 75.1205 30.3899 74.8405 30.3233C74.5739 30.2433 74.3539 30.1433 74.1805 30.0233V34.3633ZM74.1805 27.7633C74.9539 28.1233 75.6739 28.2633 76.3405 28.1833C77.0072 28.1033 77.5472 27.8366 77.9605 27.3833C78.3739 26.9166 78.5805 26.3033 78.5805 25.5433C78.5805 24.6633 78.3605 23.9699 77.9205 23.4633C77.4939 22.9566 76.9472 22.6699 76.2805 22.6033C75.6139 22.5366 74.9139 22.7233 74.1805 23.1633V27.7633ZM82.7961 30.3633V20.3633H85.1761V21.1033C85.6961 20.5699 86.3161 20.3099 87.0361 20.3233C87.7695 20.3366 88.5761 20.4833 89.4561 20.7633L88.2961 22.8233C87.7895 22.6499 87.2895 22.5966 86.7961 22.6633C86.3161 22.7299 85.9228 22.8766 85.6161 23.1033C85.3095 23.3299 85.1628 23.6033 85.1761 23.9233V30.3633H82.7961ZM99.4418 26.2833H92.4418C92.4951 26.8833 92.7218 27.3433 93.1218 27.6633C93.5218 27.9833 94.0151 28.1699 94.6018 28.2233C95.1884 28.2633 95.7884 28.1833 96.4018 27.9833C97.0284 27.7699 97.5884 27.4499 98.0818 27.0233L99.4018 28.8433C98.6684 29.4566 97.9218 29.8966 97.1618 30.1633C96.4151 30.4166 95.6751 30.5433 94.9418 30.5433C93.2484 30.5433 91.9751 30.0699 91.1218 29.1233C90.2818 28.1766 89.8618 26.8366 89.8618 25.1033C89.8618 24.1166 90.0551 23.2566 90.4418 22.5233C90.8418 21.7899 91.4018 21.2233 92.1218 20.8233C92.8551 20.4233 93.7151 20.2299 94.7018 20.2433C96.8618 20.2699 98.3018 21.1166 99.0218 22.7833C99.2218 23.2633 99.3484 23.7899 99.4018 24.3633C99.4684 24.9366 99.4818 25.5766 99.4418 26.2833ZM94.9218 22.4833C94.1084 22.4833 93.4884 22.7033 93.0618 23.1433C92.6484 23.5833 92.4418 24.0699 92.4418 24.6033H97.3818C97.3818 24.0566 97.1684 23.5699 96.7418 23.1433C96.3284 22.7033 95.7218 22.4833 94.9218 22.4833ZM101.092 29.0033L102.492 27.5033C103.199 28.1166 103.926 28.4233 104.672 28.4233C104.886 28.4233 105.079 28.4033 105.252 28.3633C105.439 28.3099 105.592 28.2299 105.712 28.1233C105.872 27.9766 105.966 27.8033 105.992 27.6033C106.019 27.3899 106.019 27.2166 105.992 27.0833C105.939 26.8433 105.772 26.6566 105.492 26.5233C105.226 26.3766 104.892 26.2499 104.492 26.1433C104.106 26.0233 103.706 25.8766 103.292 25.7033C102.879 25.5299 102.512 25.2966 102.192 25.0033C101.672 24.5099 101.372 23.9899 101.292 23.4433C101.226 22.8833 101.332 22.3633 101.612 21.8833C101.906 21.4033 102.332 21.0166 102.892 20.7233C103.452 20.4166 104.106 20.2633 104.852 20.2633C105.559 20.2633 106.192 20.3899 106.752 20.6433C107.312 20.8833 107.759 21.1966 108.092 21.5833L106.572 22.9433C106.359 22.7433 106.092 22.5966 105.772 22.5033C105.466 22.3966 105.166 22.3433 104.872 22.3433C104.566 22.3433 104.299 22.4099 104.072 22.5433C103.846 22.6633 103.732 22.8766 103.732 23.1833C103.732 23.4233 103.826 23.6166 104.012 23.7633C104.199 23.9099 104.439 24.0366 104.732 24.1433C105.039 24.2499 105.366 24.3633 105.712 24.4833C106.072 24.5899 106.412 24.7299 106.732 24.9033C107.146 25.1166 107.492 25.4233 107.772 25.8233C108.052 26.2099 108.192 26.7166 108.192 27.3433C108.192 28.0233 108.026 28.5966 107.692 29.0633C107.372 29.5299 106.946 29.8899 106.412 30.1433C105.879 30.3833 105.292 30.5033 104.652 30.5033C104.026 30.5033 103.399 30.3833 102.772 30.1433C102.159 29.8899 101.599 29.5099 101.092 29.0033ZM109.588 29.0033L110.988 27.5033C111.695 28.1166 112.422 28.4233 113.168 28.4233C113.382 28.4233 113.575 28.4033 113.748 28.3633C113.935 28.3099 114.088 28.2299 114.208 28.1233C114.368 27.9766 114.462 27.8033 114.488 27.6033C114.515 27.3899 114.515 27.2166 114.488 27.0833C114.435 26.8433 114.268 26.6566 113.988 26.5233C113.722 26.3766 113.388 26.2499 112.988 26.1433C112.602 26.0233 112.202 25.8766 111.788 25.7033C111.375 25.5299 111.008 25.2966 110.688 25.0033C110.168 24.5099 109.868 23.9899 109.788 23.4433C109.722 22.8833 109.828 22.3633 110.108 21.8833C110.402 21.4033 110.828 21.0166 111.388 20.7233C111.948 20.4166 112.602 20.2633 113.348 20.2633C114.055 20.2633 114.688 20.3899 115.248 20.6433C115.808 20.8833 116.255 21.1966 116.588 21.5833L115.068 22.9433C114.855 22.7433 114.588 22.5966 114.268 22.5033C113.962 22.3966 113.662 22.3433 113.368 22.3433C113.062 22.3433 112.795 22.4099 112.568 22.5433C112.342 22.6633 112.228 22.8766 112.228 23.1833C112.228 23.4233 112.322 23.6166 112.508 23.7633C112.695 23.9099 112.935 24.0366 113.228 24.1433C113.535 24.2499 113.862 24.3633 114.208 24.4833C114.568 24.5899 114.908 24.7299 115.228 24.9033C115.642 25.1166 115.988 25.4233 116.268 25.8233C116.548 26.2099 116.688 26.7166 116.688 27.3433C116.688 28.0233 116.522 28.5966 116.188 29.0633C115.868 29.5299 115.442 29.8899 114.908 30.1433C114.375 30.3833 113.788 30.5033 113.148 30.5033C112.522 30.5033 111.895 30.3833 111.268 30.1433C110.655 29.8899 110.095 29.5099 109.588 29.0033ZM121.164 30.4633C120.151 30.4099 119.384 30.1233 118.864 29.6033C118.344 29.0699 118.084 28.3366 118.084 27.4033C118.084 26.7233 118.258 26.1433 118.604 25.6633C118.951 25.1699 119.411 24.7833 119.984 24.5033C120.558 24.2233 121.191 24.0499 121.884 23.9833C122.591 23.9166 123.304 23.9633 124.024 24.1233V23.5033C124.024 23.0766 123.851 22.7699 123.504 22.5833C123.158 22.3966 122.731 22.3099 122.224 22.3233C121.731 22.3366 121.231 22.4366 120.724 22.6233C120.231 22.7966 119.831 23.0499 119.524 23.3833L118.184 21.9233C118.691 21.4299 119.291 21.0433 119.984 20.7633C120.678 20.4833 121.391 20.3233 122.124 20.2833C122.871 20.2433 123.571 20.3299 124.224 20.5433C124.891 20.7566 125.438 21.1033 125.864 21.5833C126.198 21.9566 126.384 22.4499 126.424 23.0633C126.464 23.6766 126.484 24.3499 126.484 25.0833V30.3633H124.044V29.4433C123.631 29.8299 123.171 30.1033 122.664 30.2633C122.158 30.4099 121.658 30.4766 121.164 30.4633ZM123.964 27.5433V25.8233C122.578 25.7166 121.611 25.8033 121.064 26.0833C120.531 26.3633 120.264 26.7966 120.264 27.3833C120.264 27.7566 120.391 28.0299 120.644 28.2033C120.911 28.3633 121.238 28.4433 121.624 28.4433C122.024 28.4299 122.431 28.3499 122.844 28.2033C123.271 28.0433 123.644 27.8233 123.964 27.5433ZM123.124 18.6233C122.871 18.6233 122.658 18.5633 122.484 18.4433C122.324 18.3099 122.178 18.1833 122.044 18.0633C121.924 17.9433 121.778 17.8833 121.604 17.8833C121.364 17.8833 121.224 17.9566 121.184 18.1033C121.144 18.2366 121.124 18.3966 121.124 18.5833H119.604C119.604 18.0366 119.778 17.5566 120.124 17.1433C120.484 16.7299 120.978 16.5233 121.604 16.5233C121.951 16.5233 122.204 16.5833 122.364 16.7033C122.538 16.8233 122.671 16.9499 122.764 17.0833C122.871 17.2033 122.991 17.2633 123.124 17.2633C123.284 17.2633 123.398 17.2166 123.464 17.1233C123.531 17.0299 123.564 16.8433 123.564 16.5633H125.084C125.084 16.8699 125.038 17.1833 124.944 17.5033C124.864 17.8233 124.684 18.0899 124.404 18.3033C124.124 18.5166 123.698 18.6233 123.124 18.6233ZM133.12 30.6233C132.16 30.6233 131.313 30.4166 130.58 30.0033C129.86 29.5766 129.293 28.9899 128.88 28.2433C128.48 27.4833 128.28 26.6033 128.28 25.6033C128.28 23.8433 128.72 22.5166 129.6 21.6233C130.493 20.7166 131.666 20.2633 133.12 20.2633C134.066 20.2633 134.9 20.4633 135.62 20.8633C136.353 21.2633 136.926 21.8633 137.34 22.6633C137.753 23.4499 137.96 24.4299 137.96 25.6033C137.96 26.6033 137.753 27.4833 137.34 28.2433C136.926 28.9899 136.353 29.5766 135.62 30.0033C134.9 30.4166 134.066 30.6233 133.12 30.6233ZM133.12 28.3233C133.666 28.3233 134.126 28.1966 134.5 27.9433C134.886 27.6766 135.173 27.3366 135.36 26.9233C135.56 26.5099 135.66 26.0699 135.66 25.6033C135.66 24.7633 135.44 24.0499 135 23.4633C134.573 22.8633 133.946 22.5633 133.12 22.5633C132.32 22.5633 131.693 22.8499 131.24 23.4233C130.8 23.9966 130.58 24.7233 130.58 25.6033C130.58 26.0833 130.68 26.5299 130.88 26.9433C131.08 27.3566 131.366 27.6899 131.74 27.9433C132.126 28.1966 132.586 28.3233 133.12 28.3233Z" fill="white"/>
<defs>
<clipPath id="clip0_92_99">
<rect width="38.6863" height="33.7265" fill="white"/>
</clipPath>
</defs>
</svg>
